/* XPM */
const char *const alien7_xpm[] = {
"16 18 7 1",
" 	c None",
".	c #CFC954",
"+	c #FFF968",
"@	c #A80000",
"#	c #FF0000",
"$	c #6E0000",
"%	c #010000",
"     ......     ",
"   ++++++++++   ",
"  @##########@  ",
"  @##########@  ",
"   @########@   ",
"   @@@@@@@@@@   ",
"   $$$$$$$$$$   ",
"   @@@@@@@@@@   ",
" @@@@@@@@@@@@@@ ",
"@##############@",
" @############@ ",
"  @###%%%%###@  ",
"   @###%%###@   ",
"    @##%%##@    ",
"    @######@    ",
"    @######@    ",
"     @####@     ",
"      @@@@      "};
