/* XPM */
const char *const alien6_xpm[] = {
"16 15 7 1",
" 	c None",
".	c #99953E",
"+	c #FFFF00",
"@	c #BCBCBC",
"#	c #FFFFFF",
"$	c #A80000",
"%	c #FF0000",
"  ..        ..  ",
" .++.      .++. ",
".++++.    .++++.",
".++++.    .++++.",
" .+++@    @+++. ",
"  ..@#@  @#@..  ",
"     @#@@#@     ",
"      @##@      ",
"       @@       ",
"       $$       ",
"      $%%$      ",
"     $%%%%$     ",
"     $%%%%$     ",
"      $%%$      ",
"       $$       "};
