/* XPM */
const char *const alien3_xpm[] = {
"17 18 7 1",
" 	c None",
".	c #900000",
"+	c #C00000",
"@	c #F00000",
"#	c #005000",
"$	c #009000",
"%	c #00D000",
"    . +@@@+ .    ",
"  ## @+...+@ ##  ",
" ##$$$$%%%$$$$## ",
" #$$%%%$$$%%%$$# ",
"##$%$$#%%%#$$%$##",
"#$$%$#     #$%$$#",
"#$$%$$$###$$$%$$#",
"#$$%%%$$$$$%%%$$#",
"#$$%$#$%%%$#$%$$#",
"#$$%$##$%$##$%$$#",
"#$$%$ #$%$# $%$$#",
"##$%$ #$%$# $%$##",
" #$%$ #$%$# $%$# ",
" ##%$#$$%$$#$%## ",
"  #%$ $   $ $%#  ",
"  ##$ #$%$# $##  ",
"   #$       $#   ",
"     #     #     "};
