/* XPM */
const char *const alien5_xpm[] = {
"16 13 11 1",
" 	c None",
".	c #C1C1C1",
"+	c #B0B0B0",
"@	c #00FF00",
"#	c #909090",
"$	c #A1A1A1",
"%	c #C15F5F",
"&	c #E16F6F",
"*	c #7F503F",
"=	c #A19050",
"-	c #FF0000",
".              .",
".      ++      .",
"@    #$..$#    @",
"@%  #++&&++#  %@",
"@*&#$++**++$#&*@",
"@+=%&+*==*+&%=+@",
"@+*=%*=&&=*%=*+@",
". $*=%%==%%=*$ .",
"+  #*==&&==*#  +",
"#   $+*%%*+$   #",
"    #*%--%*#    ",
"     =*  *=     ",
"     %    %     "};
