/* XPM */
const char *const alien4_xpm[] = {
"17 17 6 1",
" 	c None",
".	c #006000",
"+	c #00A000",
"@	c #00F000",
"#	c #A05020",
"$	c #F0F0F0",
"    ..++@.+..    ",
"   +++++@..+++   ",
"   +++++@...++   ",
"   ..+++@.....   ",
"      +++++      ",
"      ++@++      ",
"      +@@@+      ",
"     #+@ @+#     ",
"    # .   . #    ",
" @@@@@@@@@@@@@@@ ",
"@@@@@@@@@@@@@@@@@",
"@@@@@@@@@@@@@@@@@",
" @@@@@@@@@@@@@@@ ",
"      .+++.      ",
"      +@@@+      ",
"                 ",
"      $$$$$      "};
