/* XPM */
const char *const alien14_xpm[] = {
"12 17 8 1",
" 	c None",
".	c #0000AF",
"+	c #0000FF",
"@	c #99953E",
"#	c #010000",
"$	c #CFC954",
"%	c #FFFF00",
"&	c #FF0000",
" .+.    .+. ",
".++++@@++++.",
"+++++##+++++",
".++++$$++++.",
" .+++##+++. ",
" .+++%%+++. ",
"  +++##+++  ",
"  +++%%+++  ",
" .++@##@++. ",
" .++$%%$++. ",
".+++%##%+++.",
"++++$%%$++++",
".+++@##@+++.",
" .+.@%%@.+. ",
"   @%@@%@   ",
"   %@&&@%   ",
"   %&&&&%   "};
