/* XPM */
const char *const alien13_xpm[] = {
"13 17 7 1",
" 	c None",
".	c #606000",
"+	c #A0A000",
"@	c #F0F000",
"#	c #F00000",
"$	c #C00000",
"%	c #900000",
".           .",
"+.         .+",
".@.  ###  .@.",
".+. $$.$$ .+.",
" +@.+$+$+.@+ ",
" . @+%@%+@ . ",
"  .+.@@@.+.  ",
"   + +@+ +   ",
"     +@+     ",
"     .@.     ",
"     .@.     ",
"     .+.     ",
"     .+.     ",
"     .@.     ",
"    .@+@.    ",
"   .+. .+.   ",
"     .+.     "};
