/* XPM */
const char *const alien10_xpm[] = {
"14 13 10 1",
" 	c None",
".	c #FFFFFF",
"+	c #797979",
"@	c #BCBCBC",
"#	c #010000",
"$	c #FF0000",
"%	c #A80000",
"&	c #0000AF",
"*	c #0000FF",
"=	c #00FFFF",
"      ..      ",
"     +..+     ",
"  @  @..@  @  ",
" @   @..@   @ ",
"@    @##@    @",
"@...+@##@+...@",
"...++####++...",
"$$%%%@..@%%%$$",
"@    @..@    @",
"@    +..+    @",
" @  &*==*&  @ ",
"  @  &**&  @  ",
"      &&      "};
