/* XPM */
const char *const alien2_xpm[] = {
"17 14 5 1",
" 	c None",
".	c #0000FF",
"+	c #99953E",
"@	c #CFC954",
"#	c #FFF968",
"        .        ",
" ++++++...++++++ ",
"+@@@@@+...+@@@@@+",
" +@@###+.+###@@+ ",
"  ++@###+###@++  ",
"   +@#######@+   ",
"   +@#######@+   ",
"    +@##+##@+    ",
"     +@+ +@+     ",
"     +@+ +@+     ",
"     +@#+#@+     ",
"      +@#@+      ",
"       +@+       ",
"        +        "};
