/* XPM */
const char *const alien1_xpm[] = {
"18 17 7 1",
" 	c None",
".	c #603000",
"+	c #F0F000",
"@	c #A05000",
"#	c #C0C000",
"$	c #909000",
"%	c #F08000",
"     ..++++..     ",
"    @@+#$$#+@@    ",
"   @@.@.  .@.@@   ",
"  @@@..%..%..@@@  ",
" .@@%%.@%%@.%%@@. ",
".@%%@@@@  @@@@%%@.",
"@.@@   .@@.   @@.@",
"@%.    @%%@     %@",
"@.     @..@     .@",
"%@.    .%%.    .@%",
"@.     @..@     .@",
".     .@%%@.     .",
"      @%@@%@      ",
"      @%  %@      ",
"      .%  %.      ",
"       @  @       ",
"       @  @       "};
