/* XPM */
const char *const alien9_xpm[] = {
"15 18 11 1",
" 	c None",
".	c #909090",
"+	c #B0B0B0",
"@	c #FF0000",
"#	c #A1A1A1",
"$	c #C1C1C1",
"%	c #E16F6F",
"&	c #C15F5F",
"*	c #7F503F",
"=	c #A19050",
"-	c #00FF00",
"      . .      ",
"      +@+      ",
"      #$#      ",
"      %$%      ",
"      #&#      ",
"     #&*&#     ",
".  ##*%=%*##  .",
".##&&=*%*=&&##.",
"-#%=#+=%=+#=%#-",
"-      &      -",
"-      %      -",
".      #      .",
"       #       ",
"       #       ",
"      #+#      ",
"      +$+      ",
"      .+.      ",
"       .       "};
