/* XPM */
const char *const alien12_xpm[] = {
"13 18 7 1",
" 	c None",
".	c #BF6A41",
"+	c #FF8E57",
"@	c #008100",
"#	c #00B000",
"$	c #00E500",
"%	c #010000",
"    ..+..    ",
"    +++++    ",
"   @@@@@@@   ",
"  @###$###@  ",
"  @###$###@  ",
"   @##$##@   ",
"   @##$##@   ",
"    @#$#@    ",
"    @#$#@    ",
"     @$@     ",
" @@@@#$#@@@@ ",
"@#####$#####@",
" @####$####@ ",
"  @##%%%##@  ",
"   @#%%%#@   ",
"    @#%#@    ",
"     @$@     ",
"      @      "};
