/* XPM */
const char *const alien8_xpm[] = {
"15 16 8 1",
" 	c None",
".	c #C00000",
"+	c #900000",
"@	c #606000",
"#	c #F00000",
"$	c #A0A000",
"%	c #F0F000",
"&	c #0000F0",
" .    +@+    . ",
".#.  +.$.+  .#.",
".#.++.#%#.++.#.",
"+$%$.##%##.$%$+",
"  $%$.   .$%$  ",
"   $%$$ $$%$   ",
"    $%$%$%$    ",
"     $%%%$     ",
"      $%$      ",
"      $%$      ",
"      $%$      ",
"      $%$      ",
"      $%$      ",
"      &$&      ",
"     &&&&&     ",
"      &&&      "};
