/* XPM */
const char *const bomb_xpm[] = {
"5 5 4 1",
" 	c None",
".	c #955500",
"+	c #FFC800",
"@	c #FFD4B5",
"  .  ",
" .+..",
".+@+.",
"..+. ",
"  .  "};
