/* XPM */
const char *const player_xpm[] = {
"13 17 10 1",
" 	c None",
".	c #930700",
"+	c #BB3707",
"@	c #0001A2",
"#	c #D7D7E7",
"$	c #838383",
"%	c #474747",
"&	c #AFB3D3",
"*	c #838FBB",
"=	c #0100FF",
"     .+.     ",
"    .+++.    ",
"    ++@++    ",
"   .+.+.+.   ",
"     .#.     ",
" $   $#$   $ ",
"%#%  $#$  %#%",
"$#$  $#$  $#$",
"$#$$ $#$ $$#$",
"$#$&&&#&&&$#$",
"$#&$$$#$$$&#$",
"$#$$%$#$%$$#$",
"$#$  $#$  $#$",
"%*%  %#%  %*%",
"@=@   $   @=@",
"@=@       @=@",
"@=@       @=@"};
